<mxfile host="app.diagrams.net" modified="2024-07-12T14:31:53.508Z" agent="Mozilla/5.0 (Windows NT 10.0; Win64; x64) AppleWebKit/537.36 (KHTML, like Gecko) Chrome/126.0.0.0 Safari/537.36 Edg/126.0.0.0" etag="UMyxQnWG2exmoPGIfDRE" version="24.4.13" type="device">
  <diagram name="Page-1" id="eXkniUL_r-uOxXBMNaxA">
    <mxGraphModel dx="2817" dy="1311" grid="1" gridSize="10" guides="1" tooltips="1" connect="1" arrows="1" fold="1" page="1" pageScale="1" pageWidth="1654" pageHeight="1169" math="0" shadow="0">
      <root>
        <mxCell id="0" />
        <mxCell id="1" parent="0" />
        <mxCell id="1K09tjAICM7_hjX4-UmU-10" style="edgeStyle=orthogonalEdgeStyle;rounded=0;orthogonalLoop=1;jettySize=auto;html=1;" edge="1" parent="1" source="1K09tjAICM7_hjX4-UmU-1" target="1K09tjAICM7_hjX4-UmU-6">
          <mxGeometry relative="1" as="geometry" />
        </mxCell>
        <mxCell id="1K09tjAICM7_hjX4-UmU-11" style="edgeStyle=orthogonalEdgeStyle;rounded=0;orthogonalLoop=1;jettySize=auto;html=1;" edge="1" parent="1" source="1K09tjAICM7_hjX4-UmU-1" target="1K09tjAICM7_hjX4-UmU-7">
          <mxGeometry relative="1" as="geometry" />
        </mxCell>
        <mxCell id="1K09tjAICM7_hjX4-UmU-12" style="edgeStyle=orthogonalEdgeStyle;rounded=0;orthogonalLoop=1;jettySize=auto;html=1;" edge="1" parent="1" source="1K09tjAICM7_hjX4-UmU-1" target="1K09tjAICM7_hjX4-UmU-2">
          <mxGeometry relative="1" as="geometry" />
        </mxCell>
        <mxCell id="1K09tjAICM7_hjX4-UmU-13" style="edgeStyle=orthogonalEdgeStyle;rounded=0;orthogonalLoop=1;jettySize=auto;html=1;" edge="1" parent="1" source="1K09tjAICM7_hjX4-UmU-1" target="1K09tjAICM7_hjX4-UmU-8">
          <mxGeometry relative="1" as="geometry" />
        </mxCell>
        <mxCell id="1K09tjAICM7_hjX4-UmU-14" style="edgeStyle=orthogonalEdgeStyle;rounded=0;orthogonalLoop=1;jettySize=auto;html=1;" edge="1" parent="1" source="1K09tjAICM7_hjX4-UmU-1" target="1K09tjAICM7_hjX4-UmU-3">
          <mxGeometry relative="1" as="geometry" />
        </mxCell>
        <mxCell id="1K09tjAICM7_hjX4-UmU-15" style="edgeStyle=orthogonalEdgeStyle;rounded=0;orthogonalLoop=1;jettySize=auto;html=1;" edge="1" parent="1" source="1K09tjAICM7_hjX4-UmU-1" target="1K09tjAICM7_hjX4-UmU-4">
          <mxGeometry relative="1" as="geometry" />
        </mxCell>
        <mxCell id="1K09tjAICM7_hjX4-UmU-1" value="Islam Berkemajuan" style="ellipse;whiteSpace=wrap;html=1;" vertex="1" parent="1">
          <mxGeometry x="810" y="520" width="120" height="80" as="geometry" />
        </mxCell>
        <mxCell id="1K09tjAICM7_hjX4-UmU-21" style="edgeStyle=orthogonalEdgeStyle;rounded=0;orthogonalLoop=1;jettySize=auto;html=1;" edge="1" parent="1" source="1K09tjAICM7_hjX4-UmU-2" target="1K09tjAICM7_hjX4-UmU-20">
          <mxGeometry relative="1" as="geometry" />
        </mxCell>
        <mxCell id="1K09tjAICM7_hjX4-UmU-2" value="Pendidikan Inovatif" style="ellipse;whiteSpace=wrap;html=1;" vertex="1" parent="1">
          <mxGeometry x="980" y="410" width="120" height="80" as="geometry" />
        </mxCell>
        <mxCell id="1K09tjAICM7_hjX4-UmU-25" style="edgeStyle=orthogonalEdgeStyle;rounded=0;orthogonalLoop=1;jettySize=auto;html=1;" edge="1" parent="1" source="1K09tjAICM7_hjX4-UmU-3" target="1K09tjAICM7_hjX4-UmU-24">
          <mxGeometry relative="1" as="geometry" />
        </mxCell>
        <mxCell id="1K09tjAICM7_hjX4-UmU-3" value="Ekonomi Syariah" style="ellipse;whiteSpace=wrap;html=1;" vertex="1" parent="1">
          <mxGeometry x="880" y="710" width="120" height="80" as="geometry" />
        </mxCell>
        <mxCell id="1K09tjAICM7_hjX4-UmU-27" value="" style="edgeStyle=orthogonalEdgeStyle;rounded=0;orthogonalLoop=1;jettySize=auto;html=1;" edge="1" parent="1" source="1K09tjAICM7_hjX4-UmU-4" target="1K09tjAICM7_hjX4-UmU-26">
          <mxGeometry relative="1" as="geometry" />
        </mxCell>
        <mxCell id="1K09tjAICM7_hjX4-UmU-4" value="Sosial dan Budaya" style="ellipse;whiteSpace=wrap;html=1;" vertex="1" parent="1">
          <mxGeometry x="670" y="730" width="120" height="80" as="geometry" />
        </mxCell>
        <mxCell id="1K09tjAICM7_hjX4-UmU-31" style="edgeStyle=orthogonalEdgeStyle;rounded=0;orthogonalLoop=1;jettySize=auto;html=1;" edge="1" parent="1" source="1K09tjAICM7_hjX4-UmU-6" target="1K09tjAICM7_hjX4-UmU-30">
          <mxGeometry relative="1" as="geometry" />
        </mxCell>
        <mxCell id="1K09tjAICM7_hjX4-UmU-6" value="Teknologi dan Inovasi" style="ellipse;whiteSpace=wrap;html=1;" vertex="1" parent="1">
          <mxGeometry x="610" y="430" width="120" height="80" as="geometry" />
        </mxCell>
        <mxCell id="1K09tjAICM7_hjX4-UmU-33" value="" style="edgeStyle=orthogonalEdgeStyle;rounded=0;orthogonalLoop=1;jettySize=auto;html=1;" edge="1" parent="1" source="1K09tjAICM7_hjX4-UmU-7" target="1K09tjAICM7_hjX4-UmU-32">
          <mxGeometry relative="1" as="geometry" />
        </mxCell>
        <mxCell id="1K09tjAICM7_hjX4-UmU-7" value="Lingkungan Hidup" style="ellipse;whiteSpace=wrap;html=1;" vertex="1" parent="1">
          <mxGeometry x="790" y="360" width="120" height="80" as="geometry" />
        </mxCell>
        <mxCell id="1K09tjAICM7_hjX4-UmU-23" value="" style="edgeStyle=orthogonalEdgeStyle;rounded=0;orthogonalLoop=1;jettySize=auto;html=1;" edge="1" parent="1" source="1K09tjAICM7_hjX4-UmU-8" target="1K09tjAICM7_hjX4-UmU-22">
          <mxGeometry relative="1" as="geometry" />
        </mxCell>
        <mxCell id="1K09tjAICM7_hjX4-UmU-8" value="Kesehatan" style="ellipse;whiteSpace=wrap;html=1;" vertex="1" parent="1">
          <mxGeometry x="1099" y="530" width="120" height="80" as="geometry" />
        </mxCell>
        <mxCell id="1K09tjAICM7_hjX4-UmU-20" value="Mengembangkan kurikulum integratif yang menggabungkan ajaran agama dan ilmu pengetahuan umum" style="ellipse;whiteSpace=wrap;html=1;" vertex="1" parent="1">
          <mxGeometry x="1120" y="260" width="190" height="150" as="geometry" />
        </mxCell>
        <mxCell id="1K09tjAICM7_hjX4-UmU-22" value="Mendirikan banyak rumah sakit guna untuk menyediakan pelayanan kesehatan untuk umat" style="ellipse;whiteSpace=wrap;html=1;" vertex="1" parent="1">
          <mxGeometry x="1300" y="495" width="190" height="150" as="geometry" />
        </mxCell>
        <mxCell id="1K09tjAICM7_hjX4-UmU-24" value="Mendorong kewirausahaan Islami melalui penerapan perbankan syariah, investasi halal, pemberdayaan UMKM, dan ekonomi berkelanjutan" style="ellipse;whiteSpace=wrap;html=1;" vertex="1" parent="1">
          <mxGeometry x="1150" y="730" width="210" height="170" as="geometry" />
        </mxCell>
        <mxCell id="1K09tjAICM7_hjX4-UmU-26" value="Mempromosikan toleransi dan pluralisme, meningkatkan kesejahteraan sosial, menyediakan bantuan kemanusiaan" style="ellipse;whiteSpace=wrap;html=1;" vertex="1" parent="1">
          <mxGeometry x="530" y="870" width="190" height="150" as="geometry" />
        </mxCell>
        <mxCell id="1K09tjAICM7_hjX4-UmU-30" value="Berperan aktif dalam mengembangkan teknologi" style="ellipse;whiteSpace=wrap;html=1;" vertex="1" parent="1">
          <mxGeometry x="460" y="250" width="190" height="150" as="geometry" />
        </mxCell>
        <mxCell id="1K09tjAICM7_hjX4-UmU-32" value="Menggalakkan konservasi alam, mengelola sumber daya alam secara bertanggung jawab, mendukung pertanian berkelanjutan, dan memanfaatkan energi terbarukan" style="ellipse;whiteSpace=wrap;html=1;" vertex="1" parent="1">
          <mxGeometry x="710" y="100" width="210" height="170" as="geometry" />
        </mxCell>
      </root>
    </mxGraphModel>
  </diagram>
</mxfile>
